<?xml version="1.0" encoding="UTF-8" standalone="no"?>
<svg
   xmlns:dc="http://purl.org/dc/elements/1.1/"
   xmlns:cc="http://creativecommons.org/ns#"
   xmlns:rdf="http://www.w3.org/1999/02/22-rdf-syntax-ns#"
   xmlns:svg="http://www.w3.org/2000/svg"
   xmlns="http://www.w3.org/2000/svg"
   height="18.93"
   width="15.93"
   version="1.1"
   id="svg5247">
  <metadata
     id="metadata5256">
    <rdf:RDF>
      <cc:Work
         rdf:about="">
        <dc:format>image/svg+xml</dc:format>
        <dc:type
           rdf:resource="http://purl.org/dc/dcmitype/StillImage" />
        <dc:title></dc:title>
      </cc:Work>
    </rdf:RDF>
  </metadata>
  <defs
     id="defs5254" />
  <g
     style="fill:#ffffff;fill-opacity:1"
     transform="translate(-4,-1)"
     id="rotate-right">
    <path
       style="fill:#ffffff;fill-opacity:1"
       id="path5250"
       d="M 15.55,5.55 11,1 11,4.07 C 7.06,4.56 4,7.92 4,12 c 0,4.08 3.05,7.44 7,7.93 l 0,-2.02 C 8.16,17.43 6,14.97 6,12 6,9.03 8.16,6.57 11,6.09 L 11,10 15.55,5.55 Z M 19.93,11 C 19.76,9.61 19.21,8.27 18.31,7.11 l -1.42,1.42 c 0.54,0.75 0.88,1.6 1.02,2.47 l 2.02,0 z m -6.93,6.9 0,2.02 c 1.39,-0.17 2.74,-0.71 3.9,-1.61 L 15.46,16.87 C 14.71,17.41 13.87,17.76 13,17.9 Z m 3.89,-2.42 1.42,1.41 c 0.9,-1.16 1.45,-2.5 1.62,-3.89 l -2.02,0 c -0.14,0.87 -0.48,1.72 -1.02,2.48 z" />
  </g>
</svg>
