<?xml version="1.0" encoding="UTF-8" standalone="no"?>
<svg
   xmlns:dc="http://purl.org/dc/elements/1.1/"
   xmlns:cc="http://creativecommons.org/ns#"
   xmlns:rdf="http://www.w3.org/1999/02/22-rdf-syntax-ns#"
   xmlns:svg="http://www.w3.org/2000/svg"
   xmlns="http://www.w3.org/2000/svg"
   height="18.93"
   width="15.93"
   version="1.1"
   id="svg4617">
  <metadata
     id="metadata4626">
    <rdf:RDF>
      <cc:Work
         rdf:about="">
        <dc:format>image/svg+xml</dc:format>
        <dc:type
           rdf:resource="http://purl.org/dc/dcmitype/StillImage" />
        <dc:title></dc:title>
      </cc:Work>
    </rdf:RDF>
  </metadata>
  <defs
     id="defs4624" />
  <g
     style="fill:#ffffff;fill-opacity:1"
     transform="translate(-4.07,-1)"
     id="rotate-left">
    <path
       style="fill:#ffffff;fill-opacity:1"
       id="path4620"
       d="M 7.11,8.53 5.7,7.11 C 4.8,8.27 4.24,9.61 4.07,11 l 2.02,0 C 6.23,10.13 6.58,9.28 7.11,8.53 Z M 6.09,13 4.07,13 c 0.17,1.39 0.72,2.73 1.62,3.89 L 7.1,15.47 C 6.58,14.72 6.23,13.88 6.09,13 Z m 1.01,5.32 c 1.16,0.9 2.51,1.44 3.9,1.61 L 11,17.9 C 10.13,17.75 9.29,17.41 8.54,16.87 L 7.1,18.32 Z M 13,4.07 13,1 8.45,5.55 13,10 13,6.09 c 2.84,0.48 5,2.94 5,5.91 0,2.97 -2.16,5.43 -5,5.91 l 0,2.02 C 16.95,19.44 20,16.08 20,12 20,7.92 16.95,4.56 13,4.07 Z" />
  </g>
</svg>
